<svg width="1029" height="1029" viewBox="0 0 1029 1029" fill="none" xmlns="http://www.w3.org/2000/svg">
<rect width="1029" height="1029" fill="#181423"/>
<path d="M239.916 286.093C247.146 278.929 256.982 274.88 267.266 274.88H507.814C518.099 274.88 527.934 278.929 535.165 286.093C542.391 293.253 546.425 302.935 546.425 313.001V339.483C546.425 347.681 553.071 354.327 561.27 354.327C569.468 354.327 576.114 347.681 576.114 339.483V313.001C576.114 294.972 568.884 277.71 556.061 265.004C543.242 252.303 525.885 245.191 507.814 245.191H267.266C249.196 245.191 231.839 252.303 219.02 265.004C206.196 277.71 198.967 294.972 198.967 313.001V551.343C198.967 569.372 206.196 586.634 219.02 599.34C231.839 612.041 249.196 619.152 267.266 619.152H293.994C302.192 619.152 308.838 612.506 308.838 604.308C308.838 596.11 302.192 589.464 293.994 589.464H267.266C256.982 589.464 247.146 585.415 239.916 578.25C232.689 571.091 228.655 561.409 228.655 551.343V313.001C228.655 302.935 232.689 293.253 239.916 286.093Z" fill="white"/>
<path d="M377.972 424.069C384.457 417.847 393.394 414.238 402.848 414.238H556.832C565.941 414.238 573.325 406.854 573.325 397.745C573.325 388.635 565.941 381.251 556.832 381.251H402.848C385.076 381.251 367.902 388.017 355.135 400.265C342.346 412.535 335.027 429.326 335.027 446.986V717.814C335.027 735.474 342.346 752.265 355.135 764.535C367.902 776.782 385.076 783.548 402.848 783.548H685.151C702.923 783.548 720.097 776.782 732.864 764.535C745.654 752.265 752.973 735.474 752.973 717.814V570.089C752.973 560.98 745.588 553.596 736.479 553.596C727.37 553.596 719.986 560.98 719.986 570.089V717.814C719.986 726.273 716.489 734.531 710.028 740.73C703.542 746.952 694.606 750.562 685.151 750.562H402.848C393.394 750.562 384.457 746.952 377.972 740.73C371.51 734.531 368.014 726.273 368.014 717.814V446.986C368.014 438.527 371.51 430.268 377.972 424.069Z" fill="white"/>
<path d="M643.244 303.852C643.244 294.743 650.629 287.359 659.738 287.359H813.847C818.226 287.359 822.207 289.065 825.16 291.85C825.403 292.079 825.638 292.314 825.866 292.557C827.23 294.007 828.281 295.642 829.022 297.379C829.765 299.12 830.218 301.015 830.319 303.003C830.333 303.284 830.34 303.567 830.34 303.852V457.961C830.34 467.07 822.956 474.454 813.847 474.454C804.738 474.454 797.353 467.07 797.353 457.961V343.671L542.976 598.048C536.535 604.489 526.092 604.489 519.651 598.048C513.21 591.606 513.21 581.163 519.651 574.722L774.028 320.345H659.738C650.629 320.345 643.244 312.961 643.244 303.852Z" fill="white"/>
</svg>
